<?xml version="1.0" encoding="iso-8859-1"?>
<!-- Generator: Adobe Illustrator 19.0.0, SVG Export Plug-In . SVG Version: 6.00 Build 0)  -->
<svg version="1.1" id="Layer_1" xmlns="http://www.w3.org/2000/svg" xmlns:xlink="http://www.w3.org/1999/xlink" x="0px" y="0px"
	 viewBox="0 0 512 512" style="enable-background:new 0 0 512 512;" xml:space="preserve">
<g>
	<g>
		<path d="M382.264,308.353l-63.083-44.884l-51.398,36.571l75.714,53.874H168.501l213.807-152.129
			c59.48-42.428,82.933-115.685,58.351-182.288c-2.755-7.467-8.255-13.412-15.481-16.743c-3.971-1.831-8.207-2.751-12.454-2.751
			c-3.482,0-6.974,0.618-10.339,1.86c-8.096,2.988-14.091,9.155-17.163,16.56H126.777c-0.149-0.357-0.27-0.721-0.433-1.075
			c-3.335-7.24-9.275-12.74-16.727-15.49C106.255,0.619,102.762,0,99.279,0c-4.247,0-8.481,0.92-12.454,2.751
			c-7.227,3.331-12.726,9.278-15.481,16.746c-24.582,66.605-1.116,139.873,58.395,182.321l63.081,44.884l51.398-36.571
			l-60.343-42.935h144.25L129.694,308.383c-60.426,43.105-83.531,117.277-57.489,184.565C76.615,504.344,87.786,512,100.002,512
			c3.677,0,7.293-0.679,10.746-2.016c4.182-1.618,7.842-4.131,10.84-7.3h268.838c2.943,3.111,6.576,5.652,10.827,7.297
			c3.457,1.337,7.073,2.016,10.748,2.016c12.214,0,23.386-7.657,27.799-19.05C465.841,425.659,442.718,351.477,382.264,308.353z
			 M121.475,76.111c-0.255-7.056,0.282-14.179,1.661-21.253h265.729c1.38,7.074,1.919,14.197,1.665,21.253H121.475z
			 M141.124,130.761c-4.322-5.743-7.971-11.85-10.907-18.217h251.578c-2.936,6.368-6.584,12.475-10.906,18.217H141.124z
			 M133.894,390.348h244.203c3.309,5.835,5.987,11.936,8.003,18.217H125.894C127.908,402.283,130.585,396.182,133.894,390.348z
			 M386.038,466.25H125.962c-2.27-7.021-3.663-14.142-4.255-21.253h268.586C389.703,452.108,388.309,459.229,386.038,466.25z"/>
	</g>
</g>
<g>
</g>
<g>
</g>
<g>
</g>
<g>
</g>
<g>
</g>
<g>
</g>
<g>
</g>
<g>
</g>
<g>
</g>
<g>
</g>
<g>
</g>
<g>
</g>
<g>
</g>
<g>
</g>
<g>
</g>
</svg>
